<svg width="24" height="24" viewBox="0 0 24 24" fill="none" xmlns="http://www.w3.org/2000/svg">
<path d="M19.2809 0.219224C19.1402 0.0786203 18.9495 -0.000366211 18.7506 -0.000366211C18.5518 -0.000366211 18.361 0.0786203 18.2204 0.219224L15.7499 2.68972L21.3104 8.25022L23.7809 5.78122C23.8507 5.71156 23.9062 5.62879 23.944 5.53767C23.9818 5.44656 24.0012 5.34887 24.0012 5.25022C24.0012 5.15157 23.9818 5.05389 23.944 4.96277C23.9062 4.87166 23.8507 4.78889 23.7809 4.71922L19.2809 0.219224ZM20.2499 9.31072L14.6894 3.75022L4.93939 13.5002H5.24989C5.4488 13.5002 5.63957 13.5792 5.78022 13.7199C5.92087 13.8605 5.99989 14.0513 5.99989 14.2502V15.0002H6.74989C6.9488 15.0002 7.13957 15.0792 7.28022 15.2199C7.42087 15.3605 7.49989 15.5513 7.49989 15.7502V16.5002H8.24989C8.4488 16.5002 8.63957 16.5792 8.78022 16.7199C8.92087 16.8605 8.99989 17.0513 8.99989 17.2502V18.0002H9.74989C9.9488 18.0002 10.1396 18.0792 10.2802 18.2199C10.4209 18.3605 10.4999 18.5513 10.4999 18.7502V19.0607L20.2499 9.31072ZM9.04789 20.5127C9.01633 20.4288 9.00007 20.3399 8.99989 20.2502V19.5002H8.24989C8.05098 19.5002 7.86021 19.4212 7.71956 19.2806C7.57891 19.1399 7.49989 18.9491 7.49989 18.7502V18.0002H6.74989C6.55098 18.0002 6.36021 17.9212 6.21956 17.7806C6.07891 17.6399 5.99989 17.4491 5.99989 17.2502V16.5002H5.24989C5.05098 16.5002 4.86021 16.4212 4.71956 16.2806C4.57891 16.1399 4.49989 15.9491 4.49989 15.7502V15.0002H3.74989C3.66022 15.0001 3.57131 14.9838 3.48739 14.9522L3.21889 15.2192C3.14742 15.2912 3.09128 15.3769 3.05389 15.4712L0.0538922 22.9712C-0.000663785 23.1075 -0.014019 23.2568 0.0154821 23.4006C0.0449833 23.5445 0.116044 23.6765 0.219853 23.7803C0.323663 23.8841 0.455657 23.9551 0.599471 23.9846C0.743286 24.0141 0.892596 24.0008 1.02889 23.9462L8.52889 20.9462C8.62319 20.9088 8.70891 20.8527 8.78089 20.7812L9.04789 20.5142V20.5127Z" fill="white"/>
</svg>
