<svg width="12" height="14" viewBox="0 0 12 14" fill="none" xmlns="http://www.w3.org/2000/svg">
<path d="M2.25 0.25C2.84674 0.25 3.41903 0.487053 3.84099 0.90901C4.26295 1.33097 4.5 1.90326 4.5 2.5V11.5C4.5 12.0967 4.26295 12.669 3.84099 13.091C3.41903 13.5129 2.84674 13.75 2.25 13.75C1.65326 13.75 1.08097 13.5129 0.659009 13.091C0.237053 12.669 1.25753e-08 12.0967 0 11.5V2.5C0 1.90326 0.237053 1.33097 0.659009 0.90901C1.08097 0.487053 1.65326 0.25 2.25 0.25V0.25ZM9.75 0.25C10.3467 0.25 10.919 0.487053 11.341 0.90901C11.7629 1.33097 12 1.90326 12 2.5V11.5C12 12.0967 11.7629 12.669 11.341 13.091C10.919 13.5129 10.3467 13.75 9.75 13.75C9.15326 13.75 8.58097 13.5129 8.15901 13.091C7.73705 12.669 7.5 12.0967 7.5 11.5V2.5C7.5 1.90326 7.73705 1.33097 8.15901 0.90901C8.58097 0.487053 9.15326 0.25 9.75 0.25Z" fill="white"/>
</svg>
