<svg width="24" height="24" viewBox="0 0 24 24" fill="none" xmlns="http://www.w3.org/2000/svg">
<path d="M8.25 8.25C8.44891 8.25 8.63968 8.32902 8.78033 8.46967C8.92098 8.61032 9 8.80109 9 9V18C9 18.1989 8.92098 18.3897 8.78033 18.5303C8.63968 18.671 8.44891 18.75 8.25 18.75C8.05109 18.75 7.86032 18.671 7.71967 18.5303C7.57902 18.3897 7.5 18.1989 7.5 18V9C7.5 8.80109 7.57902 8.61032 7.71967 8.46967C7.86032 8.32902 8.05109 8.25 8.25 8.25ZM12 8.25C12.1989 8.25 12.3897 8.32902 12.5303 8.46967C12.671 8.61032 12.75 8.80109 12.75 9V18C12.75 18.1989 12.671 18.3897 12.5303 18.5303C12.3897 18.671 12.1989 18.75 12 18.75C11.8011 18.75 11.6103 18.671 11.4697 18.5303C11.329 18.3897 11.25 18.1989 11.25 18V9C11.25 8.80109 11.329 8.61032 11.4697 8.46967C11.6103 8.32902 11.8011 8.25 12 8.25ZM16.5 9C16.5 8.80109 16.421 8.61032 16.2803 8.46967C16.1397 8.32902 15.9489 8.25 15.75 8.25C15.5511 8.25 15.3603 8.32902 15.2197 8.46967C15.079 8.61032 15 8.80109 15 9V18C15 18.1989 15.079 18.3897 15.2197 18.5303C15.3603 18.671 15.5511 18.75 15.75 18.75C15.9489 18.75 16.1397 18.671 16.2803 18.5303C16.421 18.3897 16.5 18.1989 16.5 18V9Z" fill="white"/>
<path fill-rule="evenodd" clip-rule="evenodd" d="M21.75 4.5C21.75 4.89782 21.592 5.27936 21.3107 5.56066C21.0294 5.84196 20.6478 6 20.25 6H19.5V19.5C19.5 20.2956 19.1839 21.0587 18.6213 21.6213C18.0587 22.1839 17.2956 22.5 16.5 22.5H7.5C6.70435 22.5 5.94129 22.1839 5.37868 21.6213C4.81607 21.0587 4.5 20.2956 4.5 19.5V6H3.75C3.35218 6 2.97064 5.84196 2.68934 5.56066C2.40804 5.27936 2.25 4.89782 2.25 4.5V3C2.25 2.60218 2.40804 2.22064 2.68934 1.93934C2.97064 1.65804 3.35218 1.5 3.75 1.5H9C9 1.10218 9.15804 0.720644 9.43934 0.43934C9.72064 0.158035 10.1022 0 10.5 0L13.5 0C13.8978 0 14.2794 0.158035 14.5607 0.43934C14.842 0.720644 15 1.10218 15 1.5H20.25C20.6478 1.5 21.0294 1.65804 21.3107 1.93934C21.592 2.22064 21.75 2.60218 21.75 3V4.5ZM6.177 6L6 6.0885V19.5C6 19.8978 6.15804 20.2794 6.43934 20.5607C6.72064 20.842 7.10218 21 7.5 21H16.5C16.8978 21 17.2794 20.842 17.5607 20.5607C17.842 20.2794 18 19.8978 18 19.5V6.0885L17.823 6H6.177ZM3.75 4.5V3H20.25V4.5H3.75Z" fill="white"/>
</svg>
