<svg width="24" height="24" viewBox="0 0 24 24" fill="none" xmlns="http://www.w3.org/2000/svg">
<g clip-path="url(#clip0_1_66561)">
<path d="M8.02742 18.6281C8.02742 18.7219 7.91613 18.7969 7.77581 18.7969C7.61613 18.8109 7.50484 18.7359 7.50484 18.6281C7.50484 18.5344 7.61613 18.4594 7.75645 18.4594C7.90161 18.4453 8.02742 18.5203 8.02742 18.6281ZM6.52258 18.4172C6.48871 18.5109 6.58548 18.6187 6.73065 18.6469C6.85645 18.6937 7.00161 18.6469 7.03064 18.5531C7.05968 18.4594 6.96774 18.3516 6.82258 18.3094C6.69677 18.2766 6.55645 18.3234 6.52258 18.4172ZM8.66129 18.3375C8.52097 18.3703 8.42419 18.4594 8.43871 18.5672C8.45323 18.6609 8.57903 18.7219 8.72419 18.6891C8.86452 18.6562 8.96129 18.5672 8.94677 18.4734C8.93226 18.3844 8.80161 18.3234 8.66129 18.3375ZM11.8452 0.375C5.13387 0.375 0 5.31094 0 11.8125C0 17.0109 3.37742 21.4594 8.20161 23.025C8.82097 23.1328 9.03871 22.7625 9.03871 22.4578C9.03871 22.1672 9.02419 20.5641 9.02419 19.5797C9.02419 19.5797 5.6371 20.2828 4.92581 18.1828C4.92581 18.1828 4.37419 16.8187 3.58065 16.4672C3.58065 16.4672 2.47258 15.7312 3.65806 15.7453C3.65806 15.7453 4.8629 15.8391 5.52581 16.9547C6.58548 18.7641 8.36129 18.2437 9.05323 17.9344C9.16452 17.1844 9.47903 16.6641 9.82742 16.3547C7.12258 16.0641 4.39355 15.6844 4.39355 11.175C4.39355 9.88594 4.76129 9.23906 5.53548 8.41406C5.40968 8.10938 4.99839 6.85312 5.66129 5.23125C6.67258 4.92656 9 6.49688 9 6.49688C9.96774 6.23438 11.0081 6.09844 12.0387 6.09844C13.0694 6.09844 14.1097 6.23438 15.0774 6.49688C15.0774 6.49688 17.4048 4.92188 18.4161 5.23125C19.079 6.85781 18.6677 8.10938 18.5419 8.41406C19.3161 9.24375 19.7903 9.89062 19.7903 11.175C19.7903 15.6984 16.9403 16.0594 14.2355 16.3547C14.6806 16.725 15.0581 17.4281 15.0581 18.5297C15.0581 20.1094 15.0435 22.0641 15.0435 22.4484C15.0435 22.7531 15.2661 23.1234 15.8806 23.0156C20.7194 21.4594 24 17.0109 24 11.8125C24 5.31094 18.5565 0.375 11.8452 0.375ZM4.70323 16.5422C4.64032 16.5891 4.65484 16.6969 4.7371 16.7859C4.81452 16.8609 4.92581 16.8938 4.98871 16.8328C5.05161 16.7859 5.0371 16.6781 4.95484 16.5891C4.87742 16.5141 4.76613 16.4812 4.70323 16.5422ZM4.18064 16.1625C4.14677 16.2234 4.19516 16.2984 4.29194 16.3453C4.36935 16.3922 4.46613 16.3781 4.5 16.3125C4.53387 16.2516 4.48548 16.1766 4.38871 16.1297C4.29194 16.1016 4.21452 16.1156 4.18064 16.1625ZM5.74839 17.8312C5.67097 17.8922 5.7 18.0328 5.81129 18.1219C5.92258 18.2297 6.0629 18.2437 6.12581 18.1688C6.18871 18.1078 6.15968 17.9672 6.0629 17.8781C5.95645 17.7703 5.81129 17.7563 5.74839 17.8312ZM5.19677 17.1422C5.11935 17.1891 5.11935 17.3109 5.19677 17.4188C5.27419 17.5266 5.40484 17.5734 5.46774 17.5266C5.54516 17.4656 5.54516 17.3438 5.46774 17.2359C5.4 17.1281 5.27419 17.0813 5.19677 17.1422Z" fill="white"/>
</g>
<defs>
<clipPath id="clip0_1_66561">
<rect width="24" height="24" fill="white"/>
</clipPath>
</defs>
</svg>
