<svg width="24" height="24" viewBox="0 0 24 24" fill="none" xmlns="http://www.w3.org/2000/svg">
<g clip-path="url(#clip0_1_66791)">
<path d="M24.0001 14.6578C20.5564 21.0656 12.3064 17.1891 12.3064 17.1891C9.77514 21.0234 5.59389 23.4891 0.768892 23.5031C-0.237358 23.5031 -0.268608 22.3594 0.768892 22.3594C4.79389 22.3453 8.30014 20.3578 10.5939 17.1984C8.02514 17.9438 3.18139 18.5063 0.493892 13.3453C7.30639 11.2406 10.4376 13.8703 11.6376 15.4781C12.2564 14.3344 12.7001 13.0922 12.9876 11.7422C12.9876 11.7422 4.25639 12.7687 3.64389 7.14375C11.0876 4.89844 13.1814 10.7391 13.1814 10.7391C13.2814 9.95625 13.3876 8.27344 13.3876 8.23594C13.3876 8.23594 6.74389 4.78125 11.0064 0.492188C18.7939 2.50781 14.8439 8.10469 14.8439 8.10469C14.8751 8.17969 14.8751 9.22031 14.8439 9.67031C14.8439 9.67031 17.6689 5.49844 23.3689 6.975C23.1064 13.2563 14.5001 11.9625 14.5001 11.9625C14.2251 13.2469 13.8001 14.4656 13.2501 15.5953C13.2501 15.5953 18.4376 11.2922 24.0001 14.6578Z" fill="white"/>
</g>
<defs>
<clipPath id="clip0_1_66791">
<rect width="24" height="24" fill="white"/>
</clipPath>
</defs>
</svg>
