<svg width="24" height="24" viewBox="0 0 24 24" fill="none" xmlns="http://www.w3.org/2000/svg">
<path d="M21.533 7.11163C21.5482 7.32482 21.5482 7.53805 21.5482 7.75124C21.5482 14.2537 16.599 21.7461 7.5533 21.7461C4.76648 21.7461 2.17767 20.939 0 19.538C0.395953 19.5837 0.776625 19.5989 1.18781 19.5989C3.48727 19.5989 5.60405 18.8223 7.29441 17.4974C5.13197 17.4517 3.31978 16.0355 2.69541 14.0863C3 14.1319 3.30455 14.1624 3.62437 14.1624C4.06598 14.1624 4.50764 14.1014 4.91878 13.9949C2.66498 13.538 0.974578 11.5583 0.974578 9.16747V9.10658C1.62937 9.47206 2.39086 9.70049 3.19791 9.73091C1.87303 8.84764 1.00505 7.34005 1.00505 5.63446C1.00505 4.72077 1.24866 3.88321 1.67508 3.15224C4.09641 6.137 7.73602 8.08621 11.8172 8.29944C11.7411 7.93396 11.6954 7.55328 11.6954 7.17257C11.6954 4.46188 13.8883 2.25378 16.6141 2.25378C18.0304 2.25378 19.3095 2.84769 20.208 3.80708C21.3197 3.59389 22.3857 3.18271 23.3299 2.61927C22.9643 3.76142 22.1877 4.72082 21.1674 5.32991C22.1573 5.22336 23.1167 4.94919 23.9999 4.56852C23.33 5.5431 22.4924 6.41108 21.533 7.11163Z" fill="white"/>
</svg>
