<svg width="24" height="24" viewBox="0 0 24 24" fill="none" xmlns="http://www.w3.org/2000/svg">
<path fill-rule="evenodd" clip-rule="evenodd" d="M9 3C9.15414 3.00007 9.30451 3.04762 9.43065 3.13619C9.5568 3.22476 9.65259 3.35005 9.705 3.495L15 18.054L17.295 11.742C17.3479 11.5976 17.4439 11.473 17.57 11.385C17.6961 11.297 17.8462 11.2498 18 11.25H23.25C23.4489 11.25 23.6397 11.329 23.7803 11.4697C23.921 11.6103 24 11.8011 24 12C24 12.1989 23.921 12.3897 23.7803 12.5303C23.6397 12.671 23.4489 12.75 23.25 12.75H18.525L15.705 20.505C15.6524 20.6498 15.5566 20.7749 15.4305 20.8633C15.3043 20.9517 15.154 20.9991 15 20.9991C14.846 20.9991 14.6957 20.9517 14.5695 20.8633C14.4434 20.7749 14.3476 20.6498 14.295 20.505L9 5.946L6.705 12.2565C6.65235 12.4012 6.55645 12.5261 6.43032 12.6144C6.3042 12.7027 6.15396 12.75 6 12.75H0.75C0.551088 12.75 0.360322 12.671 0.21967 12.5303C0.0790176 12.3897 0 12.1989 0 12C0 11.8011 0.0790176 11.6103 0.21967 11.4697C0.360322 11.329 0.551088 11.25 0.75 11.25H5.475L8.295 3.495C8.34741 3.35005 8.4432 3.22476 8.56935 3.13619C8.69549 3.04762 8.84586 3.00007 9 3Z" fill="white"/>
</svg>
