<svg width="24" height="24" viewBox="0 0 24 24" fill="none" xmlns="http://www.w3.org/2000/svg">
<path d="M21.33 12.9096C21.42 14.4596 20.71 15.9496 19.44 16.8596L20.21 18.3496C20.44 18.7996 20.47 19.3296 20.27 19.7996C20.08 20.2696 19.69 20.6396 19.21 20.7996L18.42 21.0496C18.25 21.1096 18.06 21.1396 17.88 21.1396C17.37 21.1396 16.89 20.9096 16.56 20.4996L14.44 17.9996C13.55 17.8496 12.71 17.4696 12 16.8996C11.5 17.0496 11 17.1296 10.5 17.1296C9.62 17.1296 8.74 16.8596 8 16.3396C7.47 16.4996 6.93 16.5696 6.38 16.5596C5.59 16.5696 4.81 16.4096 4.08 16.1096C2.65 15.4696 1.7 14.0696 1.65 12.4996C1.57 11.7796 1.69 11.0496 2 10.3896C1.71 9.63958 1.68 8.81958 1.93 8.05958C2.3 7.10958 3 6.31958 3.87 5.81958C4.45 4.12958 6.08 2.99958 7.87 3.11958C9.47 1.61958 11.92 1.45958 13.7 2.74958C14.12 2.63958 14.56 2.57958 15 2.57958C16.36 2.54958 17.65 3.14958 18.5 4.21958C20.54 4.74958 22 6.56958 22.08 8.68958C22.13 9.79958 21.83 10.8896 21.22 11.8196C21.29 12.1796 21.33 12.5396 21.33 12.9096ZM16.33 11.4996C16.9 11.5696 17.35 11.9996 17.35 12.5696C17.35 12.8348 17.2446 13.0892 17.0571 13.2767C16.8696 13.4642 16.6152 13.5696 16.35 13.5696H15.72C15.4 14.4696 14.84 15.2596 14.1 15.8596C14.35 15.9496 14.61 15.9996 14.87 16.0696C20 15.9996 19.4 12.8696 19.4 12.8196C19.34 11.3896 18.14 10.2696 16.71 10.3296C16.4448 10.3296 16.1904 10.2242 16.0029 10.0367C15.8154 9.84915 15.71 9.5948 15.71 9.32958C15.71 9.06437 15.8154 8.81001 16.0029 8.62248C16.1904 8.43494 16.4448 8.32958 16.71 8.32958C17.94 8.35958 19.12 8.81958 20.04 9.62958C20.09 9.33958 20.12 9.03958 20.12 8.73958C20.06 7.49958 19.5 6.41958 17.25 6.20958C16 3.24958 12.85 4.88958 12.85 5.80958C12.82 6.03958 13.06 6.52958 13.1 6.55958C13.3652 6.55958 13.6196 6.66494 13.8071 6.85248C13.9946 7.04001 14.1 7.29437 14.1 7.55958C14.1 8.10958 13.65 8.55958 13.1 8.55958C12.57 8.53958 12.07 8.33958 11.67 7.99958C11.19 8.30958 10.64 8.49958 10.07 8.55958C9.5 8.60958 9.03 8.20958 9 7.65958C8.92 7.09958 9.33 6.60958 9.88 6.55958C10.04 6.53958 10.82 6.41958 10.82 5.78958C10.82 5.12958 11.07 4.49958 11.5 3.99958C10.58 3.74958 9.59 4.07958 8.59 5.28958C6.75 4.99958 6 5.24958 5.45 7.19958C4.5 7.66958 4 7.99958 3.78 8.99958C4.86 8.77958 5.97 8.86958 7 9.24958C7.5 9.43958 7.78 9.99958 7.59 10.5396C7.4 11.0596 6.82 11.3196 6.3 11.1296C5.57 10.8096 4.75 10.7896 4 11.0696C3.68 11.3396 3.68 11.8996 3.68 12.3396C3.68 13.0796 4.05 13.7696 4.68 14.1696C5.21 14.4396 5.8 14.5796 6.39 14.5696C6.24 14.3096 6.11 14.0396 6 13.7596C5.81 13.2196 6.1 12.6296 6.64 12.4396C7.18 12.2496 7.77 12.5396 7.96 13.0796C8.36 14.2196 9.38 14.9996 10.58 15.1296C11.95 15.0596 13.17 14.2496 13.77 12.9996C14 11.6196 15.11 11.4996 16.33 11.4996ZM18.33 18.9696L17.71 17.6696L17 17.8296L18 19.0796L18.33 18.9696ZM13.68 10.3596C13.7 9.82958 13.3 9.37958 12.77 9.32958C12.06 9.28958 11.37 9.52958 10.84 9.99958C10.27 10.5796 9.97 11.3796 10 12.1896C10 12.4548 10.1054 12.7092 10.2929 12.8967C10.4804 13.0842 10.7348 13.1896 11 13.1896C11.57 13.1896 12 12.7396 12 12.1896C12 11.9196 12.07 11.6496 12.23 11.4296C12.35 11.3296 12.5 11.2796 12.66 11.2796C13.21 11.3096 13.68 10.8996 13.68 10.3596Z" fill="white"/>
</svg>
