<svg width="24" height="24" viewBox="0 0 24 24" fill="none" xmlns="http://www.w3.org/2000/svg">
<path d="M22 2.00007C22 2.00007 14.36 1.63007 8.34 9.88007C3.72 16.2101 2 22.0001 2 22.0001L3.94 21.0001C5.38 18.5001 6.13 17.4701 7.54 16.0001C10.07 16.7401 12.71 16.6501 15 14.0001C13 13.4401 11.4 13.5701 9.04 13.8101C11.69 12.0001 13.5 11.6001 16 12.0001L17 10.0001C15.2 9.66007 14 9.63007 12.22 10.0401C14.19 8.65007 15.56 7.87007 18 8.00007L19.21 6.07007C17.65 5.96007 16.71 6.13007 14.92 6.57007C16.53 5.11007 18 4.45007 20.14 4.32007C20.14 4.32007 21.19 2.43007 22 2.00007Z" fill="white"/>
</svg>
