<svg width="24" height="24" viewBox="0 0 512 512" fill="none" xmlns="http://www.w3.org/2000/svg">
    <path
        d="M478.33 433.6L388.33 215.6C386.668 211.574 383.848 208.132 380.228 205.71C376.608 203.289 372.35 201.996 367.995 201.996C363.639 201.996 359.382 203.289 355.762 205.71C352.142 208.132 349.322 211.574 347.66 215.6L257.66 433.6C256.541 436.273 255.961 439.142 255.954 442.04C255.946 444.938 256.512 447.809 257.617 450.488C258.723 453.167 260.347 455.601 262.396 457.651C264.446 459.7 266.88 461.325 269.559 462.43C272.237 463.536 275.108 464.102 278.007 464.095C280.905 464.088 283.773 463.509 286.447 462.39C289.12 461.271 291.546 459.635 293.586 457.576C295.625 455.516 297.237 453.074 298.33 450.39L316.66 406H419.33L437.66 450.39C439.322 454.418 442.142 457.861 445.763 460.284C449.384 462.707 453.643 464.001 458 464C461.615 463.998 465.174 463.105 468.362 461.4C471.55 459.695 474.268 457.231 476.277 454.226C478.286 451.22 479.523 447.766 479.88 444.168C480.236 440.571 479.7 436.941 478.32 433.6H478.33ZM334.83 362L368 281.65L401.17 362H334.83Z"
        fill="white" />
    <path
        d="M267.84 342.92C271.258 338.199 272.663 332.314 271.746 326.558C270.829 320.803 267.666 315.646 262.95 312.22C262.75 312.07 247.95 301.09 226.46 277.49C266.11 223.81 288.57 162.74 297.73 134H330C335.835 134 341.431 131.682 345.556 127.556C349.682 123.431 352 117.835 352 112C352 106.165 349.682 100.569 345.556 96.4436C341.431 92.3178 335.835 90 330 90H214V70C214 64.1652 211.682 58.5694 207.556 54.4436C203.431 50.3178 197.835 48 192 48C186.165 48 180.569 50.3178 176.444 54.4436C172.318 58.5694 170 64.1652 170 70V90H54C48.1652 90 42.5694 92.3178 38.4436 96.4436C34.3178 100.569 32 106.165 32 112C32 117.835 34.3178 123.431 38.4436 127.556C42.5694 131.682 48.1652 134 54 134H251.25C241.73 160.95 224.2 203.5 197.46 242.36C166.05 200.68 154.38 173.71 154.29 173.49C151.991 168.176 147.689 163.983 142.318 161.819C136.947 159.656 130.939 159.698 125.599 161.935C120.258 164.173 116.015 168.425 113.789 173.771C111.564 179.116 111.535 185.124 113.71 190.49C114.29 191.87 128.26 224.72 166.57 274.42C167.49 275.61 168.4 276.77 169.31 277.93C130.07 322.28 91.57 349.79 75.46 358.67C70.3373 361.464 66.5344 366.179 64.8879 371.777C63.2413 377.375 63.8859 383.397 66.68 388.52C69.4741 393.643 74.1886 397.446 79.7866 399.092C85.3846 400.739 91.4073 400.094 96.53 397.3C98.69 396.12 145.13 370.41 198.16 311.71C220.68 335.79 236.16 347.15 237.09 347.81C239.43 349.51 242.082 350.731 244.895 351.405C247.707 352.078 250.625 352.191 253.481 351.736C256.337 351.281 259.075 350.267 261.539 348.753C264.003 347.238 266.144 345.253 267.84 342.91V342.92Z"
        fill="white" />
</svg>