<svg width="24" height="24" viewBox="0 0 24 24" fill="none" xmlns="http://www.w3.org/2000/svg">
<g clip-path="url(#clip0_1_43395)">
<path d="M16.8765 0.101991C17.0233 0.187099 17.1369 0.319476 17.1988 0.477498C17.2606 0.635519 17.267 0.809843 17.217 0.971991L14.5155 9.74999H19.5C19.6465 9.74993 19.7898 9.79277 19.9122 9.87322C20.0346 9.95366 20.1308 10.0682 20.1888 10.2027C20.2469 10.3372 20.2643 10.4857 20.2389 10.63C20.2136 10.7742 20.1465 10.9079 20.046 11.0145L8.04599 23.7645C7.92988 23.888 7.77538 23.9685 7.60765 23.9929C7.43993 24.0173 7.26889 23.9842 7.1224 23.8989C6.97591 23.8137 6.86262 23.6813 6.80098 23.5234C6.73935 23.3655 6.73301 23.1914 6.78299 23.0295L9.48449 14.25H4.49999C4.35351 14.25 4.21022 14.2072 4.0878 14.1268C3.96539 14.0463 3.86921 13.9318 3.81114 13.7973C3.75307 13.6628 3.73566 13.5143 3.76104 13.37C3.78643 13.2257 3.85351 13.0921 3.95399 12.9855L15.954 0.235491C16.07 0.11219 16.2242 0.0317441 16.3917 0.00723405C16.5592 -0.017276 16.7301 0.015591 16.8765 0.100491V0.101991Z" fill="white"/>
</g>
<defs>
<clipPath id="clip0_1_43395">
<rect width="24" height="24" fill="white"/>
</clipPath>
</defs>
</svg>
