<svg width="512" height="512" viewBox="0 0 512 512" fill="none" xmlns="http://www.w3.org/2000/svg">
    <path
        d="M477.64 38.2609C477.457 37.3765 477.026 36.5625 476.398 35.9142C475.769 35.266 474.968 34.8104 474.09 34.6009C415.52 20.2809 280.19 71.3109 206.87 144.601C193.793 157.572 181.871 171.659 171.24 186.701C148.63 184.701 126.02 186.371 106.75 194.771C52.38 218.701 36.55 281.141 32.14 308.001C31.8899 309.471 31.9842 310.979 32.4156 312.407C32.8471 313.834 33.6038 315.142 34.6263 316.228C35.6489 317.313 36.9093 318.147 38.3085 318.663C39.7077 319.179 41.2075 319.363 42.69 319.201L130 309.571C130.062 316.154 130.46 322.729 131.19 329.271C131.629 333.814 133.646 338.06 136.89 341.271L170.7 375.001C173.914 378.241 178.158 380.257 182.7 380.701C189.206 381.429 195.744 381.826 202.29 381.891L192.71 469.091C192.55 470.573 192.736 472.072 193.253 473.47C193.769 474.868 194.603 476.128 195.688 477.15C196.773 478.172 198.08 478.929 199.506 479.361C200.933 479.793 202.44 479.889 203.91 479.641C230.72 475.341 293.27 459.511 317.06 405.141C325.46 385.871 327.18 363.371 325.24 340.871C340.318 330.239 354.442 318.314 367.45 305.231C441 232.051 491.74 99.7409 477.64 38.2609ZM294.07 217.931C287.354 211.219 282.779 202.667 280.925 193.355C279.07 184.043 280.019 174.39 283.651 165.617C287.283 156.844 293.435 149.346 301.329 144.07C309.224 138.795 318.505 135.979 328 135.979C337.495 135.979 346.776 138.795 354.671 144.07C362.565 149.346 368.717 156.844 372.349 165.617C375.981 174.39 376.93 184.043 375.075 193.355C373.221 202.667 368.646 211.219 361.93 217.931C357.477 222.391 352.188 225.929 346.366 228.343C340.543 230.757 334.303 231.999 328 231.999C321.697 231.999 315.457 230.757 309.634 228.343C303.812 225.929 298.523 222.391 294.07 217.931Z"
        fill="white" />
    <path
        d="M168.4 399.43C162.92 404.92 154.13 407.06 143.55 408.89C119.78 412.94 98.79 392.4 103.06 368.37C104.69 359.26 109.51 346.49 112.51 343.49C113.166 342.847 113.602 342.014 113.757 341.108C113.913 340.203 113.779 339.272 113.375 338.447C112.97 337.623 112.317 336.946 111.506 336.514C110.696 336.082 109.77 335.916 108.86 336.04C95.5676 337.666 83.2014 343.693 73.73 353.16C50.22 376.69 48 464 48 464C48 464 135.36 461.78 158.87 438.25C168.367 428.786 174.401 416.401 176 403.09C176.37 398.91 171.28 396.42 168.4 399.43Z"
        fill="white" />
</svg>