<svg width="512" height="512" viewBox="0 0 512 512" fill="none" xmlns="http://www.w3.org/2000/svg">
<path d="M461.81 53.8114C461.64 52.9907 461.239 52.2357 460.654 51.6351C460.07 51.0346 459.326 50.6135 458.51 50.4214C404.13 37.1214 278.51 84.5114 210.38 152.591C198.237 164.634 187.166 177.71 177.29 191.671C156.29 189.771 135.29 191.371 117.41 199.171C66.9198 221.371 52.2298 279.351 48.1298 304.241C47.9076 305.605 48.0025 307.002 48.407 308.323C48.8116 309.644 49.515 310.855 50.4626 311.86C51.4102 312.866 52.5767 313.64 53.8716 314.122C55.1666 314.605 56.5551 314.782 57.9298 314.641L139 305.741C139.056 311.856 139.423 317.964 140.1 324.041C140.523 328.242 142.397 332.164 145.4 335.131L176.79 366.521C179.76 369.526 183.686 371.401 187.89 371.821C193.931 372.495 200.002 372.862 206.08 372.921L197.19 453.921C197.051 455.294 197.23 456.681 197.712 457.973C198.195 459.266 198.968 460.431 199.972 461.377C200.976 462.323 202.185 463.026 203.504 463.431C204.823 463.835 206.218 463.931 207.58 463.711C232.48 459.711 290.58 445.021 312.65 394.541C320.45 376.641 322.05 355.751 320.25 334.851C334.252 324.984 347.366 313.912 359.44 301.761C427.82 233.761 474.91 110.901 461.81 53.8114ZM298.66 213.671C292.687 207.7 288.619 200.092 286.971 191.808C285.323 183.525 286.168 174.939 289.399 167.136C292.631 159.333 298.104 152.664 305.126 147.971C312.148 143.279 320.404 140.774 328.85 140.774C337.295 140.774 345.551 143.279 352.574 147.971C359.596 152.664 365.069 159.333 368.3 167.136C371.532 174.939 372.377 183.525 370.729 191.808C369.08 200.092 365.012 207.7 359.04 213.671C355.078 217.641 350.372 220.791 345.192 222.94C340.012 225.089 334.458 226.195 328.85 226.195C323.241 226.195 317.688 225.089 312.507 222.94C307.327 220.791 302.621 217.641 298.66 213.671V213.671Z" stroke="white" stroke-width="32" stroke-linecap="round" stroke-linejoin="round"/>
<path d="M109.64 352C99.6711 353.224 90.3969 357.743 83.29 364.84C65.67 382.52 64 448 64 448C64 448 129.52 446.33 147.15 428.69C154.276 421.594 158.803 412.305 160 402.32" stroke="white" stroke-width="32" stroke-linecap="round" stroke-linejoin="round"/>
</svg>
